<svg width="26" height="25" viewBox="0 0 26 25" fill="none" xmlns="http://www.w3.org/2000/svg">
<g clip-path="url(#clip0_33_116)">
<path d="M18.8711 13.3272H21.3869C21.6184 13.3272 21.8061 13.1421 21.8061 12.9136V11.6721C21.8061 11.4436 21.6184 11.2584 21.3869 11.2584H18.8711C18.6396 11.2584 18.4519 11.4436 18.4519 11.6721V12.9136C18.4519 13.1421 18.6396 13.3272 18.8711 13.3272ZM19.2903 12.0864H20.9677V12.5H19.2903V12.0864Z" fill="url(#paint0_linear_33_116)"/>
<path d="M7.12898 11.2584H4.61316C4.38165 11.2584 4.19397 11.4436 4.19397 11.6721V12.9136C4.19397 13.1421 4.38165 13.3272 4.61316 13.3272H7.12898C7.36049 13.3272 7.54817 13.1421 7.54817 12.9136V11.6721C7.54817 11.4436 7.36049 11.2584 7.12898 11.2584ZM6.70979 12.5H5.03235V12.0864H6.70979V12.5Z" fill="url(#paint1_linear_33_116)"/>
<path d="M15.0969 13.3272H17.6127C17.8443 13.3272 18.0319 13.1421 18.0319 12.9136V11.6721C18.0319 11.4436 17.8443 11.2584 17.6127 11.2584H15.0969C14.8654 11.2584 14.6777 11.4436 14.6777 11.6721V12.9136C14.6777 13.1421 14.8654 13.3272 15.0969 13.3272ZM15.5161 12.0864H17.1936V12.5H15.5161V12.0864Z" fill="url(#paint2_linear_33_116)"/>
<path d="M5.45149 18.2928C4.52475 18.2928 3.77405 19.0336 3.77405 19.948C3.77405 20.8625 4.52475 21.6032 5.45149 21.6032C6.37823 21.6032 7.12893 20.8625 7.12893 19.948C7.12756 19.0343 6.37754 18.2942 5.45149 18.2928ZM5.45149 20.776C4.98846 20.776 4.61311 20.4056 4.61311 19.9487C4.61311 19.4918 4.98846 19.1215 5.45149 19.1215C5.91452 19.1215 6.28987 19.4918 6.28987 19.9487C6.28987 20.4056 5.91383 20.776 5.45149 20.776Z" fill="url(#paint3_linear_33_116)"/>
<path d="M21.8061 16.224C19.8142 16.2267 18.0977 17.6089 17.697 19.5344H13.4188V14.5688H21.5965C22.4068 14.5681 23.0636 13.92 23.0643 13.1204V1.94838C23.0636 1.14883 22.4068 0.500676 21.5965 0.5H4.40354C3.59325 0.500676 2.93638 1.14883 2.93569 1.94838V13.1204C2.93638 13.92 3.59325 14.5681 4.40354 14.5688H12.5812V19.5344H10.9037V17.052C10.9037 16.8235 10.716 16.6383 10.4845 16.6383H0.419189C0.187676 16.6383 0 16.8235 0 17.052V22.8448C0 23.0732 0.187676 23.2584 0.419189 23.2584H10.4838C10.7154 23.2584 10.903 23.0732 10.903 22.8448V20.3623H17.6128C17.6128 22.6475 19.4902 24.5 21.8061 24.5C24.1219 24.5 25.9993 22.6475 25.9993 20.3623C25.9993 18.0772 24.1219 16.2247 21.8061 16.2247V16.224ZM0.838378 17.4656H1.60484C1.47744 17.8184 1.19592 18.0962 0.838378 18.2219V17.4656ZM0.838378 22.4312V21.6749C1.19592 21.8006 1.47744 22.0784 1.60484 22.4312H0.838378ZM10.0646 22.4312H9.29819C9.42559 22.0784 9.70711 21.8006 10.0646 21.6749V22.4312ZM10.0646 20.8172C9.24203 20.9848 8.59886 21.6188 8.42899 22.4312H2.47404C2.30417 21.6195 1.66169 20.9848 0.838378 20.8172V19.0796C1.661 18.9119 2.30417 18.278 2.47404 17.4656H8.42899C8.59886 18.2773 9.24134 18.9119 10.0646 19.0796V20.8172ZM10.0646 18.2219C9.70711 18.0962 9.42559 17.8184 9.29819 17.4656H10.0646V18.2219ZM3.77407 1.94838C3.77407 1.60572 4.05559 1.32794 4.40286 1.32794H21.5965C21.9437 1.32794 22.2252 1.60572 22.2252 1.94838V2.98313H3.77407V1.94838ZM3.77407 3.81039H22.2252V5.46559H3.77407V3.81039ZM4.40354 13.7416C4.05627 13.7416 3.77476 13.4638 3.77476 13.1211V6.29352H22.2259V13.1211C22.2259 13.4638 21.9444 13.7416 21.5971 13.7416H4.40354ZM21.8061 23.6721C19.9533 23.6721 18.4512 22.1899 18.4512 20.3617C18.4512 18.5335 19.9533 17.0513 21.8061 17.0513C23.6588 17.0513 25.1609 18.5335 25.1609 20.3617C25.1589 22.1892 23.6582 23.67 21.8061 23.6721Z" fill="url(#paint4_linear_33_116)"/>
<path d="M23.4835 21.1896C23.4829 21.8749 22.9198 22.4298 22.2253 22.4312C22.2253 22.6596 22.0376 22.8448 21.8061 22.8448C21.5746 22.8448 21.3869 22.6596 21.3869 22.4312H20.5485C20.317 22.4312 20.1293 22.246 20.1293 22.0175C20.1293 21.7891 20.317 21.6039 20.5485 21.6039H22.226C22.4575 21.6039 22.6452 21.4187 22.6452 21.1903C22.6452 20.9733 22.4205 20.7766 22.1732 20.7766H21.3869C20.6924 20.7766 20.1287 20.2211 20.1287 19.5351C20.1287 18.8491 20.6917 18.2935 21.3869 18.2935C21.3869 18.0651 21.5746 17.8799 21.8061 17.8799C22.0376 17.8799 22.2253 18.0651 22.2253 18.2935H23.0637C23.2952 18.2935 23.4829 18.4787 23.4829 18.7071C23.4829 18.9356 23.2952 19.1208 23.0637 19.1208H21.3862C21.1547 19.1208 20.967 19.306 20.967 19.5344C20.967 19.7628 21.1547 19.948 21.3862 19.948H22.1726C22.8828 19.948 23.4829 20.5164 23.4829 21.1896H23.4835Z" fill="url(#paint5_linear_33_116)"/>
</g>
<defs>
<linearGradient id="paint0_linear_33_116" x1="21.4916" y1="11.2584" x2="20.9234" y2="13.5263" gradientUnits="userSpaceOnUse">
<stop stop-color="#60A969"/>
<stop offset="1" stop-color="#3E7C52"/>
</linearGradient>
<linearGradient id="paint1_linear_33_116" x1="7.23371" y1="11.2584" x2="6.66545" y2="13.5263" gradientUnits="userSpaceOnUse">
<stop stop-color="#60A969"/>
<stop offset="1" stop-color="#3E7C52"/>
</linearGradient>
<linearGradient id="paint2_linear_33_116" x1="17.7175" y1="11.2584" x2="17.1492" y2="13.5263" gradientUnits="userSpaceOnUse">
<stop stop-color="#60A969"/>
<stop offset="1" stop-color="#3E7C52"/>
</linearGradient>
<linearGradient id="paint3_linear_33_116" x1="6.81441" y1="18.2928" x2="5.48243" y2="21.6156" gradientUnits="userSpaceOnUse">
<stop stop-color="#60A969"/>
<stop offset="1" stop-color="#3E7C52"/>
</linearGradient>
<linearGradient id="paint4_linear_33_116" x1="23.5619" y1="0.5" x2="14.3691" y2="25.0135" gradientUnits="userSpaceOnUse">
<stop stop-color="#60A969"/>
<stop offset="1" stop-color="#3E7C52"/>
</linearGradient>
<linearGradient id="paint5_linear_33_116" x1="23.169" y1="17.8799" x2="20.6147" y2="22.1285" gradientUnits="userSpaceOnUse">
<stop stop-color="#60A969"/>
<stop offset="1" stop-color="#3E7C52"/>
</linearGradient>
<clipPath id="clip0_33_116">
<rect width="26" height="24" fill="white" transform="translate(0 0.5)"/>
</clipPath>
</defs>
</svg>
