<svg width="28" height="25" viewBox="0 0 28 25" fill="none" xmlns="http://www.w3.org/2000/svg">
<g clip-path="url(#clip0_33_124)">
<path d="M1.80651 24.5H9.9355C10.9332 24.5 11.742 23.7041 11.742 22.7222V17.3889H10.8391V21.833H0.902931V8.50081H10.8384V12.9449H11.7414V7.61162C11.7414 6.62977 10.9326 5.83386 9.93485 5.83386H1.80651C0.80878 5.83386 0 6.62977 0 7.61162V22.7222C0 23.7041 0.80878 24.5 1.80651 24.5ZM1.80651 6.7237H9.9355C10.4344 6.7237 10.8384 7.12133 10.8384 7.61226H0.902931C0.902931 7.12133 1.30699 6.7237 1.80586 6.7237H1.80651ZM10.8384 22.7228C10.8384 23.2138 10.4344 23.6114 9.9355 23.6114H1.80651C1.30765 23.6114 0.903584 23.2138 0.903584 22.7228H10.8391H10.8384Z" fill="url(#paint0_linear_33_124)"/>
<path d="M5.87074 4.94596C6.12026 4.94596 6.32253 4.74691 6.32253 4.50136C6.32253 4.25582 6.12026 4.05676 5.87074 4.05676C5.62122 4.05676 5.41895 4.25582 5.41895 4.50136C5.41895 4.74691 5.62122 4.94596 5.87074 4.94596Z" fill="url(#paint1_linear_33_124)"/>
<path d="M8.05375 2.4792L8.78342 1.95482C7.60588 0.372019 5.34758 0.0271489 3.73852 1.18529C3.43906 1.40084 3.17557 1.66013 2.95654 1.95482L3.68752 2.4792C4.57083 1.29274 6.26424 1.03602 7.46989 1.90528C7.69284 2.06613 7.88964 2.2598 8.0531 2.4792H8.05375Z" fill="url(#paint2_linear_33_124)"/>
<path d="M6.59707 3.52979L7.33 3.01056C6.74418 2.21723 5.61633 2.04157 4.81082 2.61807C4.65782 2.72745 4.52314 2.86 4.41199 3.01056L5.14492 3.52979C5.46399 3.13538 6.0472 3.06975 6.44799 3.38309C6.50292 3.4262 6.55326 3.47575 6.59707 3.52979Z" fill="url(#paint3_linear_33_124)"/>
<path d="M22.1287 4.94596C22.3782 4.94596 22.5805 4.74691 22.5805 4.50136C22.5805 4.25582 22.3782 4.05676 22.1287 4.05676C21.8792 4.05676 21.6769 4.25582 21.6769 4.50136C21.6769 4.74691 21.8792 4.94596 22.1287 4.94596Z" fill="url(#paint4_linear_33_124)"/>
<path d="M24.3118 2.47914L25.0414 1.95476C23.8645 0.371316 21.6062 0.0270897 19.9972 1.18524C19.6977 1.40078 19.4342 1.66008 19.2152 1.95476L19.9449 2.47914C20.8282 1.29269 22.5216 1.03596 23.7272 1.90522C23.9502 2.06607 24.147 2.25974 24.3105 2.47914H24.3124H24.3118Z" fill="url(#paint5_linear_33_124)"/>
<path d="M22.855 3.52979L23.5879 3.01056C23.0021 2.21723 21.8743 2.04157 21.0688 2.61807C20.9158 2.72745 20.7811 2.86 20.6699 3.01056L21.4029 3.52979C21.7219 3.13538 22.3051 3.06975 22.7059 3.38309C22.7608 3.4262 22.8112 3.47575 22.855 3.52979Z" fill="url(#paint6_linear_33_124)"/>
<path d="M26.1934 5.83459H18.0644C17.0667 5.83459 16.2579 6.6305 16.2579 7.61235V12.501H17.1609V8.5009H27.0964V21.8337H17.1609V17.8336H16.2579V22.7223C16.2579 23.7041 17.0667 24.5 18.0644 24.5H26.1934C27.1912 24.5 28 23.7041 28 22.7223V7.61235C28 6.6305 27.1912 5.83459 26.1934 5.83459ZM26.1934 23.6115H18.0644C17.5656 23.6115 17.1615 23.2139 17.1615 22.7229H27.097C27.097 23.2139 26.693 23.6115 26.1941 23.6115H26.1934ZM17.1609 7.61235C17.1609 7.12142 17.5649 6.72379 18.0638 6.72379H26.1928C26.6917 6.72379 27.0957 7.12142 27.0957 7.61235H17.1602H17.1609Z" fill="url(#paint7_linear_33_124)"/>
<path d="M6.88477 12.694C6.56243 12.566 6.21852 12.5003 5.87069 12.501H5.85107L5.87069 13.3895C6.1028 13.3889 6.33294 13.4326 6.54805 13.5182L6.88477 12.694Z" fill="url(#paint8_linear_33_124)"/>
<path d="M5.87063 16.9451C5.63525 16.9451 5.40249 16.9 5.18477 16.8119L4.84216 17.6342C5.17038 17.7654 5.52214 17.8323 5.87651 17.8304L5.86997 16.9451H5.87063Z" fill="url(#paint9_linear_33_124)"/>
<path d="M4.59905 16.4302C4.43037 16.2662 4.29633 16.0712 4.2048 15.8563L3.37183 16.2006C3.50913 16.5229 3.70985 16.815 3.96223 17.0608L4.5984 16.4296L4.59905 16.4302Z" fill="url(#paint10_linear_33_124)"/>
<path d="M3.36069 14.1629C3.22731 14.4852 3.15997 14.8301 3.16127 15.1782H3.26458L4.0642 15.1672C4.0642 14.9375 4.10866 14.7104 4.19628 14.4975L3.36004 14.1622L3.36069 14.1629Z" fill="url(#paint11_linear_33_124)"/>
<path d="M4.81349 12.7113C4.48657 12.8477 4.18974 13.0459 3.94128 13.2955L4.58465 13.9177C4.75072 13.7517 4.94883 13.6192 5.16655 13.5278L4.81414 12.7113H4.81349Z" fill="url(#paint12_linear_33_124)"/>
<path d="M8.36367 14.1198C8.2244 13.7981 8.02172 13.5073 7.76738 13.2628L7.13513 13.8979C7.30447 14.0607 7.43981 14.255 7.53266 14.4692L8.36367 14.1192V14.1198Z" fill="url(#paint13_linear_33_124)"/>
<path d="M7.78963 17.0499L7.15019 16.4226C6.98347 16.588 6.7847 16.7192 6.56567 16.8087L6.91351 17.629C7.24173 17.4945 7.53922 17.2977 7.78963 17.0499Z" fill="url(#paint14_linear_33_124)"/>
<path d="M8.58075 15.1563L8.34015 15.1486L7.67782 15.1672C7.67848 15.4001 7.63271 15.6305 7.54248 15.846L8.37676 16.1864C8.51341 15.8595 8.58271 15.5095 8.58075 15.1563Z" fill="url(#paint15_linear_33_124)"/>
<path d="M25.7417 15.1673C25.7417 13.2036 24.1241 11.6118 22.1287 11.6118C20.1332 11.6118 18.5156 13.2036 18.5156 15.1673C18.5156 17.131 20.1332 18.7228 22.1287 18.7228C24.1228 18.7209 25.7391 17.1304 25.7417 15.1673ZM19.4192 15.1673C19.4192 13.6945 20.6321 12.501 22.1287 12.501C23.6253 12.501 24.8381 13.6945 24.8381 15.1673C24.8381 16.6401 23.6253 17.8336 22.1287 17.8336C20.6327 17.8323 19.4205 16.6395 19.4192 15.1673Z" fill="url(#paint16_linear_33_124)"/>
<path d="M22.5804 17.3897V16.9225C23.1911 16.799 23.5847 16.2122 23.4598 15.6106C23.3519 15.094 22.8903 14.7233 22.3548 14.7227H21.903C21.7782 14.7227 21.6775 14.623 21.6775 14.5007C21.6775 14.3785 21.7788 14.2787 21.903 14.2787H22.3548C22.4797 14.2787 22.5804 14.3785 22.5804 14.5007H23.4833C23.4833 13.9731 23.1054 13.5182 22.5804 13.4121V12.9449H21.6775V13.4121C21.0668 13.5356 20.6732 14.1224 20.7981 14.724C20.906 15.2406 21.3676 15.6113 21.903 15.6119H22.3548C22.4797 15.6119 22.5804 15.7116 22.5804 15.8339C22.5804 15.9561 22.4791 16.0559 22.3548 16.0559H21.903C21.7782 16.0559 21.6775 15.9561 21.6775 15.8339H20.7745C20.7745 16.3615 21.1524 16.8164 21.6775 16.9225V17.3897H22.5804Z" fill="url(#paint17_linear_33_124)"/>
<path d="M13.793 17.7846C13.9434 17.8612 14.1245 17.8483 14.2625 17.7512L17.4237 15.5288C17.627 15.386 17.6741 15.1087 17.529 14.9092C17.5002 14.8693 17.4642 14.8339 17.4237 14.8056L14.2625 12.5833C14.0598 12.4404 13.7773 12.4868 13.6328 12.6869C13.5779 12.7621 13.5485 12.8522 13.5485 12.9449V13.9229L9.83739 14.7342C9.59417 14.7876 9.44052 15.025 9.49479 15.265C9.53271 15.433 9.66609 15.5642 9.83739 15.6022L13.5485 16.4116V17.3896C13.5485 17.5562 13.6426 17.7087 13.793 17.7846ZM12.0172 15.1672L14.0977 14.7123C14.3043 14.6673 14.4514 14.4871 14.4514 14.2787V13.809L16.3841 15.1679L14.4514 16.5268V16.0571C14.4514 15.8486 14.3043 15.6684 14.0977 15.6234L12.0172 15.1685V15.1672Z" fill="url(#paint18_linear_33_124)"/>
</g>
<defs>
<linearGradient id="paint0_linear_33_124" x1="10.6412" y1="5.83386" x2="0.730445" y2="21.1801" gradientUnits="userSpaceOnUse">
<stop stop-color="#60A969"/>
<stop offset="1" stop-color="#3E7C52"/>
</linearGradient>
<linearGradient id="paint1_linear_33_124" x1="6.23782" y1="4.05676" x2="5.88073" y2="4.94996" gradientUnits="userSpaceOnUse">
<stop stop-color="#60A969"/>
<stop offset="1" stop-color="#3E7C52"/>
</linearGradient>
<linearGradient id="paint2_linear_33_124" x1="8.23715" y1="0.5" x2="7.92491" y2="2.76276" gradientUnits="userSpaceOnUse">
<stop stop-color="#60A969"/>
<stop offset="1" stop-color="#3E7C52"/>
</linearGradient>
<linearGradient id="paint3_linear_33_124" x1="7.05644" y1="2.27869" x2="6.81003" y2="3.69335" gradientUnits="userSpaceOnUse">
<stop stop-color="#60A969"/>
<stop offset="1" stop-color="#3E7C52"/>
</linearGradient>
<linearGradient id="paint4_linear_33_124" x1="22.4958" y1="4.05676" x2="22.1387" y2="4.94996" gradientUnits="userSpaceOnUse">
<stop stop-color="#60A969"/>
<stop offset="1" stop-color="#3E7C52"/>
</linearGradient>
<linearGradient id="paint5_linear_33_124" x1="24.4952" y1="0.499756" x2="24.1829" y2="2.76271" gradientUnits="userSpaceOnUse">
<stop stop-color="#60A969"/>
<stop offset="1" stop-color="#3E7C52"/>
</linearGradient>
<linearGradient id="paint6_linear_33_124" x1="23.3144" y1="2.27869" x2="23.068" y2="3.69335" gradientUnits="userSpaceOnUse">
<stop stop-color="#60A969"/>
<stop offset="1" stop-color="#3E7C52"/>
</linearGradient>
<linearGradient id="paint7_linear_33_124" x1="26.8991" y1="5.83459" x2="16.9889" y2="21.1806" gradientUnits="userSpaceOnUse">
<stop stop-color="#60A969"/>
<stop offset="1" stop-color="#3E7C52"/>
</linearGradient>
<linearGradient id="paint8_linear_33_124" x1="6.78786" y1="12.501" x2="6.37936" y2="13.5228" gradientUnits="userSpaceOnUse">
<stop stop-color="#60A969"/>
<stop offset="1" stop-color="#3E7C52"/>
</linearGradient>
<linearGradient id="paint9_linear_33_124" x1="5.77954" y1="16.8119" x2="5.37031" y2="17.8348" gradientUnits="userSpaceOnUse">
<stop stop-color="#60A969"/>
<stop offset="1" stop-color="#3E7C52"/>
</linearGradient>
<linearGradient id="paint10_linear_33_124" x1="4.484" y1="15.8563" x2="4.00124" y2="17.0671" gradientUnits="userSpaceOnUse">
<stop stop-color="#60A969"/>
<stop offset="1" stop-color="#3E7C52"/>
</linearGradient>
<linearGradient id="paint11_linear_33_124" x1="4.09924" y1="14.1622" x2="3.69201" y2="15.1835" gradientUnits="userSpaceOnUse">
<stop stop-color="#60A969"/>
<stop offset="1" stop-color="#3E7C52"/>
</linearGradient>
<linearGradient id="paint12_linear_33_124" x1="5.05168" y1="12.7113" x2="4.56703" y2="13.9229" gradientUnits="userSpaceOnUse">
<stop stop-color="#60A969"/>
<stop offset="1" stop-color="#3E7C52"/>
</linearGradient>
<linearGradient id="paint13_linear_33_124" x1="8.24849" y1="13.2628" x2="7.76477" y2="14.4754" gradientUnits="userSpaceOnUse">
<stop stop-color="#60A969"/>
<stop offset="1" stop-color="#3E7C52"/>
</linearGradient>
<linearGradient id="paint14_linear_33_124" x1="7.67489" y1="16.4226" x2="7.18986" y2="17.6339" gradientUnits="userSpaceOnUse">
<stop stop-color="#60A969"/>
<stop offset="1" stop-color="#3E7C52"/>
</linearGradient>
<linearGradient id="paint15_linear_33_124" x1="8.48345" y1="15.1486" x2="8.06198" y2="16.1865" gradientUnits="userSpaceOnUse">
<stop stop-color="#60A969"/>
<stop offset="1" stop-color="#3E7C52"/>
</linearGradient>
<linearGradient id="paint16_linear_33_124" x1="25.0642" y1="11.6118" x2="22.2086" y2="18.7548" gradientUnits="userSpaceOnUse">
<stop stop-color="#60A969"/>
<stop offset="1" stop-color="#3E7C52"/>
</linearGradient>
<linearGradient id="paint17_linear_33_124" x1="23.2294" y1="12.9449" x2="20.8395" y2="16.5301" gradientUnits="userSpaceOnUse">
<stop stop-color="#60A969"/>
<stop offset="1" stop-color="#3E7C52"/>
</linearGradient>
<linearGradient id="paint18_linear_33_124" x1="16.8511" y1="12.5004" x2="15.3046" y2="18.3023" gradientUnits="userSpaceOnUse">
<stop stop-color="#60A969"/>
<stop offset="1" stop-color="#3E7C52"/>
</linearGradient>
<clipPath id="clip0_33_124">
<rect width="28" height="24" fill="white" transform="translate(0 0.5)"/>
</clipPath>
</defs>
</svg>
