<svg width="24" height="27" viewBox="0 0 24 27" fill="none" xmlns="http://www.w3.org/2000/svg">
<path d="M11.0904 1.39633H11.5454V0.5H11.0904C10.8393 0.5 10.6354 0.700831 10.6354 0.948164C10.6354 1.1955 10.8393 1.39633 11.0904 1.39633Z" fill="url(#paint0_linear_33_65)"/>
<path d="M18.6884 5.29772C18.8471 5.12182 18.8389 4.85494 18.6706 4.68781C18.5023 4.52135 18.2306 4.51191 18.0514 4.66759L17.452 5.25526C17.6778 5.45407 17.892 5.66568 18.0938 5.88808L18.6884 5.29772Z" fill="url(#paint1_linear_33_65)"/>
<path d="M11.5454 3.21184C11.6966 3.20308 11.8465 3.18893 12.0004 3.18893C12.1543 3.18893 12.3042 3.20308 12.4554 3.21184V2.2926H11.5454V3.21184Z" fill="url(#paint2_linear_33_65)"/>
<path d="M13.3654 0.948164C13.3654 0.700831 13.1615 0.5 12.9104 0.5H12.4554V1.39633H12.9104C13.1615 1.39633 13.3654 1.1955 13.3654 0.948164Z" fill="url(#paint3_linear_33_65)"/>
<path d="M11.8875 16.977L11.5167 16.9467C10.8256 16.8901 10.1572 16.7129 9.53044 16.4204L9.19518 16.264L9.59544 15.5813C9.62486 15.5301 9.60638 15.4627 9.55302 15.4317C9.49965 15.4014 9.43054 15.4189 9.39907 15.4715L8.99813 16.1555L8.69229 15.9459C8.1244 15.5557 7.6352 15.0739 7.23904 14.5145L7.02626 14.2132L7.72277 13.8177C7.75972 13.7968 7.78162 13.7597 7.78162 13.7199C7.78162 13.6802 7.75972 13.6431 7.72483 13.6229C7.68993 13.6033 7.64683 13.6033 7.61125 13.6229L6.91541 14.0185L6.75668 13.6883C6.45974 13.0709 6.27979 12.4125 6.22232 11.7318L6.19153 11.3666H6.99547C7.05773 11.3666 7.10836 11.3167 7.10836 11.2554C7.10836 11.194 7.05773 11.1442 6.99547 11.1442H6.19153L6.22232 10.7789C6.27979 10.0982 6.45974 9.4398 6.75668 8.82247L6.91541 8.49225L7.60851 8.8865C7.64546 8.90806 7.68856 8.90806 7.72414 8.88785C7.75904 8.8683 7.78093 8.83124 7.78093 8.79147C7.78093 8.75171 7.75904 8.71465 7.72414 8.6951L7.02557 8.29816L7.23836 7.99691C7.63451 7.43755 8.12303 6.95569 8.6916 6.56548L8.99744 6.35589L9.39975 7.04127C9.42097 7.07767 9.4586 7.09923 9.49896 7.09923C9.53933 7.09923 9.57696 7.07767 9.5968 7.0433C9.61665 7.00893 9.61665 6.96579 9.5968 6.93142L9.19518 6.24671L9.53044 6.09036C10.1572 5.79787 10.8256 5.62063 11.5167 5.56402L11.8875 5.53369V6.32489C11.8875 6.38621 11.9381 6.43609 12.0004 6.43609C12.0627 6.43609 12.1133 6.38621 12.1133 6.32489V5.53369L12.4835 5.56402C13.1759 5.62063 13.8443 5.79787 14.4724 6.09036L14.8077 6.24671L14.4074 6.9294C14.378 6.98062 14.3965 7.04801 14.4499 7.07902C14.5032 7.10934 14.5723 7.09115 14.6038 7.03925L15.0047 6.35521L15.3106 6.56481C15.8785 6.95501 16.3677 7.4362 16.7638 7.99624L16.9766 8.29748L16.2808 8.69375C16.2295 8.72341 16.211 8.79147 16.2418 8.84404C16.2726 8.89661 16.3417 8.91548 16.395 8.88515L17.0868 8.49225L17.2455 8.82315C17.5418 9.44047 17.721 10.0989 17.7778 10.7796L17.8086 11.1442H17.0054C16.9431 11.1442 16.8925 11.194 16.8925 11.2554C16.8925 11.3167 16.9431 11.3666 17.0054 11.3666H17.8086L17.7778 11.7312C17.7203 12.4132 17.5404 13.0716 17.2435 13.6903L17.0847 14.0205L16.3909 13.6263C16.354 13.6047 16.3109 13.6047 16.276 13.6249C16.2411 13.6445 16.2192 13.6815 16.2192 13.7213C16.2192 13.761 16.2411 13.7981 16.276 13.8177L16.9739 14.2146L16.7611 14.5158C16.3649 15.0752 15.8764 15.5571 15.3078 15.9473L15.002 16.1569L14.5997 15.4708C14.5696 15.4203 14.5005 15.4021 14.4471 15.4324C14.3937 15.4627 14.3746 15.5308 14.4054 15.5834L14.8043 16.2647L14.4683 16.421C13.8416 16.7129 13.1731 16.8894 12.4821 16.9454L12.1119 16.975V16.1838C12.1119 16.1225 12.0613 16.0726 11.999 16.0726C11.9368 16.0726 11.8861 16.1225 11.8861 16.1838V16.975L11.8875 16.977ZM12.0004 15.4007C12.4397 15.4007 12.7975 15.7532 12.7975 16.1858V16.2317C13.1526 16.1771 13.4995 16.0854 13.8348 15.9581L13.8122 15.9196C13.5953 15.5436 13.7273 15.0651 14.1057 14.8501C14.4841 14.6351 14.9712 14.7618 15.1922 15.1332L15.2162 15.1736C15.4953 14.9505 15.7492 14.7005 15.9756 14.4255L15.9366 14.4033C15.6903 14.2658 15.5364 14.0043 15.5357 13.7233C15.5357 13.4423 15.6883 13.1808 15.9359 13.0406C16.1836 12.9004 16.4901 12.9018 16.7358 13.044L16.7727 13.0649C16.9027 12.734 16.9965 12.3916 17.0526 12.0405H17.006C16.5668 12.0405 16.2089 11.688 16.2089 11.2554C16.2089 10.8227 16.5668 10.4702 17.006 10.4702H17.0526C16.9971 10.1205 16.9041 9.77878 16.7748 9.44856L16.7358 9.4708C16.354 9.68443 15.8682 9.55436 15.6493 9.18168C15.431 8.809 15.5596 8.32916 15.9366 8.11148L15.9777 8.08789C15.7512 7.81293 15.4974 7.56222 15.2182 7.33983L15.1956 7.37824C14.974 7.75092 14.4868 7.8783 14.1084 7.66331C13.7301 7.44833 13.598 6.96916 13.8142 6.59513L13.8382 6.5547C13.5022 6.42665 13.1547 6.33432 12.7982 6.27906V6.32489C12.7982 6.75755 12.4404 7.11002 12.0011 7.11002C11.5618 7.11002 11.204 6.75755 11.204 6.32489V6.27906C10.8489 6.33432 10.502 6.42598 10.1661 6.55402L10.1886 6.59244C10.3316 6.83303 10.333 7.13495 10.1907 7.37891C10.0491 7.6222 9.78428 7.77316 9.49965 7.77316H9.4976C9.21228 7.77316 8.9475 7.62018 8.80655 7.37622L8.78534 7.33915C8.50619 7.56222 8.25235 7.81225 8.02588 8.08722L8.06488 8.10946C8.31119 8.24694 8.46513 8.50842 8.46582 8.78945C8.46582 9.07048 8.31324 9.33197 8.06624 9.47214C7.81856 9.61232 7.51204 9.61097 7.26573 9.46878L7.22878 9.44788C7.09878 9.77811 7.00573 10.1198 6.94962 10.4702H6.99615C7.43541 10.4702 7.79325 10.8227 7.79325 11.2554C7.79325 11.688 7.43541 12.0405 6.99615 12.0405H6.94962C7.00573 12.3903 7.09878 12.7319 7.22878 13.0628L7.26778 13.0406C7.51204 12.8998 7.81856 12.8984 8.06624 13.0379C8.31393 13.1781 8.46719 13.4396 8.4665 13.7206C8.4665 14.0016 8.31119 14.2624 8.06351 14.4013L8.02588 14.4222C8.25235 14.6971 8.50619 14.9472 8.78534 15.1702L8.80792 15.1318C9.0296 14.7591 9.51675 14.6318 9.89512 14.8467C10.2735 15.0617 10.4055 15.5409 10.1893 15.9149L10.1654 15.9554C10.5006 16.0834 10.8475 16.1751 11.2033 16.2303V16.1845C11.2033 15.7518 11.5612 15.3994 12.0004 15.3994V15.4007ZM12.6579 13.8224C12.454 13.8224 12.2495 13.7455 12.0941 13.5926L10.7292 12.2481C10.5143 12.0365 10.4404 11.7285 10.5369 11.4447L11.4469 8.75576C11.5365 8.49023 11.765 8.29074 12.0435 8.23413C12.322 8.1782 12.6114 8.27322 12.8002 8.48214C12.9891 8.69106 13.05 8.98624 12.961 9.25177L12.2084 11.4805L13.2244 12.4819C13.5344 12.7906 13.5323 13.2879 13.221 13.5926C13.0657 13.7455 12.8618 13.8217 12.6579 13.8217V13.8224ZM12.2036 8.89256C12.1961 8.89256 12.1886 8.89324 12.181 8.89459C12.1414 8.90267 12.1092 8.93098 12.0962 8.96872L11.1862 11.6577C11.1725 11.6981 11.1828 11.7413 11.2136 11.7716L12.5786 13.1161C12.6223 13.1592 12.6942 13.1592 12.738 13.1161L12.7393 13.1147C12.7838 13.0716 12.7838 13.0008 12.74 12.9577L11.4264 11.6631L12.3117 9.03948C12.3247 9.00174 12.3158 8.95996 12.2891 8.9303C12.2672 8.90604 12.2365 8.89256 12.2043 8.89256H12.2036Z" fill="url(#paint4_linear_33_65)"/>
<path d="M12.0004 4.08533C7.98 4.08533 4.72046 7.29594 4.72046 11.256C4.72046 15.216 7.98 18.4266 12.0004 18.4266C16.0207 18.4266 19.2803 15.216 19.2803 11.256C19.2755 7.29796 16.0187 4.09004 12.0004 4.08533ZM12.0004 17.5303C8.4822 17.5303 5.63045 14.7213 5.63045 11.256C5.63045 7.7906 8.4822 4.98166 12.0004 4.98166C15.5185 4.98166 18.3703 7.7906 18.3703 11.256C18.3607 14.7173 15.5144 17.5208 12.0004 17.5303Z" fill="url(#paint5_linear_33_65)"/>
<path d="M22.9195 18.8747H21.5546C21.3035 18.8747 21.0996 19.0755 21.0996 19.3229C21.0996 19.5702 21.3035 19.771 21.5546 19.771H21.8214L19.8653 21.6978C19.6833 21.6102 19.4828 21.5644 19.2803 21.5637C18.5263 21.5637 17.9153 22.1655 17.9153 22.9082C17.9173 22.9621 17.9228 23.016 17.9317 23.0692L15.6766 24.1833C15.2065 23.731 14.4737 23.6771 13.9408 24.0559L11.4906 22.3697C11.5255 22.2531 11.544 22.1325 11.5454 22.0112C11.5454 21.2685 10.9344 20.6667 10.1804 20.6667C9.42638 20.6667 8.81539 21.2685 8.81539 22.0112C8.81539 22.1116 8.82839 22.212 8.85234 22.3104L6.0129 24.0943C5.67901 23.8247 5.23154 23.7358 4.81828 23.8571L3.05099 21.0549C3.24667 20.819 3.35477 20.5238 3.35614 20.2185C3.35614 19.4758 2.74515 18.874 1.99116 18.874C1.23717 18.874 0.625488 19.4765 0.625488 20.2192C0.625488 20.9619 1.23648 21.5637 1.99047 21.5637C2.08763 21.5637 2.18479 21.5529 2.27989 21.532L4.0684 24.3686C3.72219 24.841 3.72493 25.4792 4.07387 25.9496C4.42281 26.42 5.04065 26.6148 5.60238 26.4322C6.16411 26.2495 6.54316 25.7319 6.54042 25.149C6.54042 25.0486 6.52742 24.9482 6.50347 24.8498L9.34291 23.0659C9.81433 23.4386 10.4807 23.4541 10.9699 23.1043L13.4201 24.7905C13.3852 24.9071 13.3667 25.0277 13.3653 25.149C13.3653 25.8917 13.9763 26.4935 14.7303 26.4935C15.4843 26.4935 16.0953 25.8917 16.0953 25.149C16.0933 25.0951 16.0878 25.0412 16.0789 24.9879L18.334 23.8739C18.8061 24.3308 19.5437 24.3868 20.0808 24.006C20.6179 23.6252 20.7985 22.919 20.5084 22.3326L22.4646 20.4059V20.668C22.4646 20.9154 22.6684 21.1162 22.9195 21.1162C23.1706 21.1162 23.3745 20.9154 23.3745 20.668V19.3235C23.3745 19.0762 23.1706 18.8754 22.9195 18.8754V18.8747ZM1.53548 20.2192C1.53548 19.9719 1.73937 19.771 1.99047 19.771C2.24157 19.771 2.44547 19.9719 2.44547 20.2192C2.44547 20.4665 2.24157 20.6674 1.99047 20.6674C1.73937 20.6674 1.53548 20.4665 1.53548 20.2192ZM5.17544 25.5965C4.92433 25.5965 4.72044 25.3957 4.72044 25.1483C4.72044 24.901 4.92433 24.7002 5.17544 24.7002C5.42654 24.7002 5.63043 24.901 5.63043 25.1483C5.63043 25.3957 5.42654 25.5965 5.17544 25.5965ZM10.1804 22.4593C9.92927 22.4593 9.72538 22.2585 9.72538 22.0112C9.72538 21.7638 9.92927 21.563 10.1804 21.563C10.4315 21.563 10.6354 21.7638 10.6354 22.0112C10.6354 22.2585 10.4315 22.4593 10.1804 22.4593ZM14.7303 25.5965C14.4792 25.5965 14.2753 25.3957 14.2753 25.1483C14.2753 24.901 14.4792 24.7002 14.7303 24.7002C14.9814 24.7002 15.1853 24.901 15.1853 25.1483C15.1853 25.3957 14.9814 25.5965 14.7303 25.5965ZM19.2803 23.3557C19.0292 23.3557 18.8253 23.1548 18.8253 22.9075C18.8253 22.6602 19.0292 22.4593 19.2803 22.4593C19.5314 22.4593 19.7353 22.6602 19.7353 22.9075C19.7353 23.1548 19.5314 23.3557 19.2803 23.3557Z" fill="url(#paint6_linear_33_65)"/>
<defs>
<linearGradient id="paint0_linear_33_65" x1="11.4601" y1="0.5" x2="11.0999" y2="1.40013" gradientUnits="userSpaceOnUse">
<stop stop-color="#60A969"/>
<stop offset="1" stop-color="#3E7C52"/>
</linearGradient>
<linearGradient id="paint1_linear_33_65" x1="18.6757" y1="4.55664" x2="18.1403" y2="5.89333" gradientUnits="userSpaceOnUse">
<stop stop-color="#60A969"/>
<stop offset="1" stop-color="#3E7C52"/>
</linearGradient>
<linearGradient id="paint2_linear_33_65" x1="12.3701" y1="2.2926" x2="11.9939" y2="3.20919" gradientUnits="userSpaceOnUse">
<stop stop-color="#60A969"/>
<stop offset="1" stop-color="#3E7C52"/>
</linearGradient>
<linearGradient id="paint3_linear_33_65" x1="13.2801" y1="0.5" x2="12.9199" y2="1.40013" gradientUnits="userSpaceOnUse">
<stop stop-color="#60A969"/>
<stop offset="1" stop-color="#3E7C52"/>
</linearGradient>
<linearGradient id="paint4_linear_33_65" x1="16.7195" y1="5.53369" x2="12.1208" y2="17.0254" gradientUnits="userSpaceOnUse">
<stop stop-color="#60A969"/>
<stop offset="1" stop-color="#3E7C52"/>
</linearGradient>
<linearGradient id="paint5_linear_33_65" x1="17.9153" y1="4.08533" x2="12.1523" y2="18.4874" gradientUnits="userSpaceOnUse">
<stop stop-color="#60A969"/>
<stop offset="1" stop-color="#3E7C52"/>
</linearGradient>
<linearGradient id="paint6_linear_33_65" x1="21.2418" y1="18.874" x2="20.0539" y2="27.5968" gradientUnits="userSpaceOnUse">
<stop stop-color="#60A969"/>
<stop offset="1" stop-color="#3E7C52"/>
</linearGradient>
</defs>
</svg>
