<svg width="24" height="25" viewBox="0 0 24 25" fill="none" xmlns="http://www.w3.org/2000/svg">
<g clip-path="url(#clip0_33_145)">
<path d="M23.4998 23.5004H14.4533C19.4108 20.9947 22.4993 16.5847 22.4993 11.7682V4.49993C22.4993 4.28768 22.365 4.09793 22.1648 4.02818C11.6543 0.349429 12.1583 0.524178 12.1125 0.513678C12.0188 0.491928 11.9235 0.497178 11.8342 0.528678L1.8345 4.02818C1.63425 4.09868 1.5 4.28768 1.5 4.49993V11.7682C1.5 16.5847 4.5885 20.9947 9.546 23.5004H0.50025C0.22425 23.5004 0 23.7247 0 24.0007C0 24.2767 0.2235 24.5009 0.50025 24.5009H23.5005C23.7765 24.5009 24.0008 24.2767 24.0008 24.0007C24.0008 23.7247 23.7765 23.5004 23.5005 23.5004H23.4998ZM5.109 7.08743H18.8918V11.9594C18.8918 15.6172 16.1933 18.9412 12.0008 20.4697C7.80825 18.9412 5.10975 15.6172 5.10975 11.9594V7.08743H5.109ZM7.551 6.08693L12 4.52993L16.449 6.08693H7.55025H7.551ZM2.49975 11.7682V4.85468L11.4998 1.70468V3.64493C3.9465 6.28868 4.425 6.11843 4.374 6.14543C4.2045 6.23693 4.1085 6.40793 4.1085 6.58718V11.9594C4.1085 16.0957 7.1415 19.8299 11.8342 21.4724C11.9377 21.5084 12.0548 21.5107 12.1643 21.4724C16.8578 19.8299 19.89 16.0957 19.89 11.9594C19.8893 6.20393 19.8937 6.56093 19.881 6.49643C19.8465 6.31118 19.7145 6.17093 19.5548 6.11543L12.498 3.64568V1.70543L21.498 4.85543V11.7689C21.498 16.8104 17.775 21.3869 11.9978 23.4704C6.2205 21.3869 2.4975 16.8104 2.4975 11.7689L2.49975 11.7682Z" fill="url(#paint0_linear_33_145)"/>
<path d="M21.9998 19.0002C21.1725 19.0002 20.4998 19.673 20.4998 20.5002C20.4998 21.3275 21.1725 22.0002 21.9998 22.0002C22.827 22.0002 23.4998 21.3275 23.4998 20.5002C23.4998 19.673 22.827 19.0002 21.9998 19.0002ZM21.9998 20.9997C21.7238 20.9997 21.4995 20.7755 21.4995 20.4995C21.4995 20.2235 21.7238 19.9992 21.9998 19.9992C22.2758 19.9992 22.5 20.2235 22.5 20.4995C22.5 20.7755 22.2758 20.9997 21.9998 20.9997Z" fill="url(#paint1_linear_33_145)"/>
<path d="M2.00024 23C2.82749 23 3.50024 22.3273 3.50024 21.5C3.50024 20.6728 2.82749 20 2.00024 20C1.17299 20 0.500244 20.6728 0.500244 21.5C0.500244 22.3273 1.17299 23 2.00024 23ZM2.00024 20.9997C2.27624 20.9997 2.50049 21.224 2.50049 21.5C2.50049 21.776 2.27624 22.0003 2.00024 22.0003C1.72424 22.0003 1.49999 21.776 1.49999 21.5C1.49999 21.224 1.72424 20.9997 2.00024 20.9997Z" fill="url(#paint2_linear_33_145)"/>
<path d="M12 18.5C14.757 18.5 17.0003 16.2568 17.0003 13.4998C17.0003 10.7428 14.757 8.49951 12 8.49951C9.24301 8.49951 6.99976 10.7428 6.99976 13.4998C6.99976 16.2568 9.24301 18.5 12 18.5ZM12 9.50001C14.2058 9.50001 15.9998 11.2948 15.9998 13.4998C15.9998 15.7048 14.205 17.4995 12 17.4995C9.79501 17.4995 8.00026 15.7048 8.00026 13.4998C8.00026 11.2948 9.79501 9.50001 12 9.50001Z" fill="url(#paint3_linear_33_145)"/>
<path d="M12 16.0002C11.724 16.0002 11.4998 16.2245 11.4998 16.5005C11.4998 16.7765 11.7233 17.0007 12 17.0007C13.9298 17.0007 15.5003 15.431 15.5003 13.5005C15.5003 13.2245 15.276 13.0002 15 13.0002C14.724 13.0002 14.4998 13.2245 14.4998 13.5005C14.4998 14.879 13.3785 16.0002 12 16.0002Z" fill="url(#paint4_linear_33_145)"/>
<path d="M9.50026 13.4998C9.50026 12.1213 10.6215 11 12 11C12.276 11 12.5003 10.7765 12.5003 10.4998C12.5003 10.223 12.276 9.99951 12 9.99951C10.0703 9.99951 8.49976 11.5693 8.49976 13.4998C8.49976 13.7758 8.72326 14 9.00001 14C9.27676 14 9.50026 13.7758 9.50026 13.4998Z" fill="url(#paint5_linear_33_145)"/>
<path d="M10.8533 13.6468C10.6583 13.4518 10.3418 13.4518 10.146 13.6468C9.95101 13.8418 9.95101 14.1583 10.146 14.354L11.1458 15.3538C11.3685 15.5765 11.7405 15.5405 11.9153 15.2773L13.9155 12.2773C14.0685 12.0478 14.0063 11.7373 13.7768 11.5843C13.5473 11.4313 13.2368 11.4928 13.0838 11.723L11.4218 14.2153L10.8533 13.6468Z" fill="url(#paint6_linear_33_145)"/>
<path d="M1.5 3.5C2.32725 3.5 3 2.82725 3 2C3 1.17275 2.32725 0.5 1.5 0.5C0.67275 0.5 0 1.17275 0 2C0 2.82725 0.67275 3.5 1.5 3.5ZM1.5 1.49975C1.776 1.49975 2.00025 1.724 2.00025 2C2.00025 2.276 1.776 2.50025 1.5 2.50025C1.224 2.50025 0.99975 2.276 0.99975 2C0.99975 1.724 1.224 1.49975 1.5 1.49975Z" fill="url(#paint7_linear_33_145)"/>
<path d="M21.9998 3.5C22.827 3.5 23.4998 2.82725 23.4998 2C23.4998 1.17275 22.827 0.5 21.9998 0.5C21.1725 0.5 20.4998 1.17275 20.4998 2C20.4998 2.82725 21.1725 3.5 21.9998 3.5ZM21.9998 1.49975C22.2758 1.49975 22.5 1.724 22.5 2C22.5 2.276 22.2758 2.50025 21.9998 2.50025C21.7238 2.50025 21.4995 2.276 21.4995 2C21.4995 1.724 21.7238 1.49975 21.9998 1.49975Z" fill="url(#paint8_linear_33_145)"/>
<path d="M6 8H6.99975V8.99975H6V8Z" fill="url(#paint9_linear_33_145)"/>
<path d="M17.0002 8H18V8.99975H17.0002V8Z" fill="url(#paint10_linear_33_145)"/>
</g>
<defs>
<linearGradient id="paint0_linear_33_145" x1="21.7507" y1="0.500488" x2="12.0006" y2="24.501" gradientUnits="userSpaceOnUse">
<stop stop-color="#60A969"/>
<stop offset="1" stop-color="#3E7C52"/>
</linearGradient>
<linearGradient id="paint1_linear_33_145" x1="23.2185" y1="19.0002" x2="21.9998" y2="22.0002" gradientUnits="userSpaceOnUse">
<stop stop-color="#60A969"/>
<stop offset="1" stop-color="#3E7C52"/>
</linearGradient>
<linearGradient id="paint2_linear_33_145" x1="3.21899" y1="20" x2="2.00024" y2="23" gradientUnits="userSpaceOnUse">
<stop stop-color="#60A969"/>
<stop offset="1" stop-color="#3E7C52"/>
</linearGradient>
<linearGradient id="paint3_linear_33_145" x1="16.0627" y1="8.49951" x2="12" y2="18.5" gradientUnits="userSpaceOnUse">
<stop stop-color="#60A969"/>
<stop offset="1" stop-color="#3E7C52"/>
</linearGradient>
<linearGradient id="paint4_linear_33_145" x1="15.1252" y1="13.0002" x2="13.5" y2="17.0007" gradientUnits="userSpaceOnUse">
<stop stop-color="#60A969"/>
<stop offset="1" stop-color="#3E7C52"/>
</linearGradient>
<linearGradient id="paint5_linear_33_145" x1="12.1252" y1="9.99951" x2="10.5" y2="14" gradientUnits="userSpaceOnUse">
<stop stop-color="#60A969"/>
<stop offset="1" stop-color="#3E7C52"/>
</linearGradient>
<linearGradient id="paint6_linear_33_145" x1="13.6244" y1="11.5002" x2="11.9993" y2="15.5001" gradientUnits="userSpaceOnUse">
<stop stop-color="#60A969"/>
<stop offset="1" stop-color="#3E7C52"/>
</linearGradient>
<linearGradient id="paint7_linear_33_145" x1="2.71875" y1="0.5" x2="1.5" y2="3.5" gradientUnits="userSpaceOnUse">
<stop stop-color="#60A969"/>
<stop offset="1" stop-color="#3E7C52"/>
</linearGradient>
<linearGradient id="paint8_linear_33_145" x1="23.2185" y1="0.5" x2="21.9998" y2="3.5" gradientUnits="userSpaceOnUse">
<stop stop-color="#60A969"/>
<stop offset="1" stop-color="#3E7C52"/>
</linearGradient>
<linearGradient id="paint9_linear_33_145" x1="6.90602" y1="8" x2="6.49988" y2="8.99975" gradientUnits="userSpaceOnUse">
<stop stop-color="#60A969"/>
<stop offset="1" stop-color="#3E7C52"/>
</linearGradient>
<linearGradient id="paint10_linear_33_145" x1="17.9063" y1="8" x2="17.5001" y2="8.99975" gradientUnits="userSpaceOnUse">
<stop stop-color="#60A969"/>
<stop offset="1" stop-color="#3E7C52"/>
</linearGradient>
<clipPath id="clip0_33_145">
<rect width="24" height="24" fill="white" transform="translate(0 0.5)"/>
</clipPath>
</defs>
</svg>
