<svg width="24" height="25" viewBox="0 0 24 25" fill="none" xmlns="http://www.w3.org/2000/svg">
<rect y="0.5" width="24" height="24" rx="12" fill="url(#paint0_linear_25_1747)"/>
<path d="M8.71119 18.204C8.71119 18.0653 8.68452 17.996 8.63119 17.996L8.26319 18.172C8.26319 18.0973 8.22052 18.044 8.13519 18.012L8.00719 17.996C7.92185 17.996 7.81519 18.0333 7.68719 18.108C7.66585 18.0547 7.63919 18.0013 7.60719 17.948C7.57519 17.8947 7.54852 17.8467 7.52719 17.804C7.38852 17.5373 7.24985 17.244 7.11119 16.924C6.98319 16.5933 6.86052 16.2787 6.74319 15.98C6.63652 15.6813 6.55119 15.4467 6.48719 15.276C6.44452 15.1373 6.39652 14.9293 6.34319 14.652C6.28985 14.3747 6.23652 14.0227 6.18319 13.596C6.30052 13.6707 6.39119 13.708 6.45519 13.708C6.52985 13.708 6.59919 13.596 6.66319 13.372C6.69519 13.4147 6.75385 13.436 6.83919 13.436C6.90319 13.436 6.95119 13.4147 6.98319 13.372L7.23919 12.988L7.52719 13.084H7.54319C7.56452 13.084 7.58585 13.0733 7.60719 13.052C7.62852 13.0307 7.66052 13.0093 7.70319 12.988C7.78852 12.9347 7.85252 12.908 7.89519 12.908L7.94319 12.924C8.20985 13.052 8.38052 13.2867 8.45519 13.628C8.64719 14.4387 8.83919 14.844 9.03119 14.844C9.22319 14.844 9.44719 14.6413 9.70319 14.236C9.83119 14.0333 9.95919 13.7987 10.0872 13.532C10.2259 13.2653 10.3645 12.9667 10.5032 12.636C10.5245 12.764 10.5459 12.828 10.5672 12.828C10.6205 12.828 10.7112 12.6947 10.8392 12.428C10.9779 12.1613 11.1965 11.7933 11.4952 11.324C11.6659 11.036 11.8792 10.7107 12.1352 10.348C12.4019 9.98533 12.6845 9.612 12.9832 9.228C13.2819 8.844 13.5699 8.48133 13.8472 8.14C14.1352 7.79867 14.3912 7.50533 14.6152 7.26C14.8392 7.01467 15.0045 6.85467 15.1112 6.78C15.5165 6.50267 15.8365 6.236 16.0712 5.98C16.0605 6.05467 16.0445 6.124 16.0232 6.188C16.0125 6.24133 16.0072 6.27867 16.0072 6.3C16.0072 6.34267 16.0285 6.364 16.0712 6.364L16.5192 6.14V6.204C16.5192 6.28933 16.5405 6.332 16.5832 6.332C16.6152 6.332 16.6792 6.284 16.7752 6.188C16.8712 6.092 16.9245 6.02267 16.9352 5.98L16.9032 6.204L17.4472 5.884L17.3192 6.172C17.4899 6.05467 17.6125 5.996 17.6872 5.996C17.7299 5.996 17.7619 6.02267 17.7832 6.076C17.8045 6.11867 17.8152 6.16133 17.8152 6.204C17.8152 6.268 17.7885 6.34267 17.7352 6.428C17.6819 6.51333 17.6125 6.61467 17.5272 6.732C17.4632 6.81733 17.3565 6.94533 17.2072 7.116C17.0685 7.276 16.8552 7.516 16.5672 7.836C16.2792 8.14533 15.8952 8.57733 15.4152 9.132C15.2872 9.27067 15.0899 9.516 14.8232 9.868C14.5565 10.2093 14.2525 10.6093 13.9112 11.068C13.5805 11.516 13.2499 11.9693 12.9192 12.428C12.5885 12.8867 12.2952 13.3027 12.0392 13.676C11.7832 14.0387 11.6019 14.3107 11.4952 14.492L10.5032 16.172C10.2899 16.5347 10.1139 16.8333 9.97519 17.068C9.83652 17.292 9.72985 17.4467 9.65519 17.532C9.49519 17.724 9.31919 17.8947 9.12719 18.044L8.98319 17.964L8.85519 18.044L8.71119 18.204Z" fill="white"/>
<defs>
<linearGradient id="paint0_linear_25_1747" x1="21.75" y1="0.5" x2="12" y2="24.5" gradientUnits="userSpaceOnUse">
<stop stop-color="#60A969"/>
<stop offset="1" stop-color="#3E7C52"/>
</linearGradient>
</defs>
</svg>
